# xmcd CD database file
#
# Track frame offsets:
#	150
#	14486
#	33407
#	50902
#	64846
#	82002
#	93606
#	109835
#	122353
#	142527
#	155847
#	173694
#	185891
#	200400
#	211969
#
# Disc length: 3052 seconds
#
# Revision: 0
# Processed by: cddbd v1.5.2PL0 Copyright (c) Steve Scherf et al.
# Submitted via: CDex 1.51
#
DISCID=d60bea0f
DTITLE=Derek Ryan - Dreamers and Believers
DYEAR=2012
DGENRE=Country
TTITLE0=It's Friday
TTITLE1=Dreamers And Believers
TTITLE2=Galway To Graceland
TTITLE3=I Got My Baby Back
TTITLE4=Write Me A Letter
TTITLE5=I'm Gonna Get You
TTITLE6=It's A Heartache
TTITLE7=Love's Gonna Live Here
TTITLE8=Life Is A River
TTITLE9=Dance With Me Tonight
TTITLE10=I Can't Stop Loving You
TTITLE11=Perfect Days
TTITLE12=The Song of Donegal
TTITLE13=Big Big Love
TTITLE14=I Won't Let Go
EXTD=YEAR: 2012
EXTT0=
EXTT1=
EXTT2=
EXTT3=
EXTT4=
EXTT5=
EXTT6=
EXTT7=
EXTT8=
EXTT9=
EXTT10=
EXTT11=
EXTT12=
EXTT13=
EXTT14=
PLAYORDER=
